<svg width="20" height="21" viewBox="0 0 20 21" fill="none" xmlns="http://www.w3.org/2000/svg">
<g id="Group 172">
<path id="Vector" d="M17.5 0.400391H2.5C1.12083 0.400391 0 1.52366 0 2.90582V17.9384C0 19.3197 1.12083 20.4438 2.5 20.4438H17.5C18.8783 20.4438 20 19.3197 20 17.9384V2.90582C20 1.52366 18.8783 0.400391 17.5 0.400391Z" fill="#3B5999"/>
<path id="Vector_2" d="M13.75 10.4222V7.9168C13.75 7.2253 14.31 7.29045 15 7.29045H16.25V4.15869H13.75C11.6783 4.15869 10 5.84065 10 7.9168V10.4222H7.5V13.554H10V20.4438H13.75V13.554H15.625L16.875 10.4222H13.75Z" fill="white"/>
</g>
</svg>
