<svg width="20" height="21" viewBox="0 0 20 21" fill="none" xmlns="http://www.w3.org/2000/svg">
<g id="Group 87">
<path id="Vector" d="M10 20.4438C15.5228 20.4438 20 15.9569 20 10.4221C20 4.88726 15.5228 0.400391 10 0.400391C4.47715 0.400391 0 4.88726 0 10.4221C0 15.9569 4.47715 20.4438 10 20.4438Z" fill="#273B7A"/>
<path id="Vector_2" d="M19.7748 12.5424L13.6607 6.41504L8.56329 6.82279L5.95947 9.20485L6.29361 14.3866L12.0827 20.2251C15.9229 19.4097 18.9485 16.386 19.7748 12.5424Z" fill="#121149"/>
<path id="Vector_3" d="M10.2183 9.50025V11.4205H13.2151C12.7901 12.7952 11.5116 13.7937 10.0003 13.7937C8.14181 13.7937 6.63513 12.2839 6.63513 10.4213C6.63505 8.55891 8.14165 7.04903 10.0002 7.04903C10.8687 7.04903 11.6578 7.38165 12.2548 7.92299L13.661 6.4144C12.6964 5.52896 11.4114 4.98828 10.0002 4.98828C7.00595 4.98828 4.57861 7.42071 4.57861 10.4214C4.57861 13.4221 7.00595 15.8545 10.0002 15.8545C12.9945 15.8545 15.4218 13.422 15.4218 10.4214C15.4218 10.107 15.3928 9.79979 15.3413 9.50025H10.2183Z" fill="#4285F4"/>
<path id="Vector_4" d="M10 7.04954C10.8686 7.04954 11.6577 7.38223 12.2547 7.92369L13.6608 6.41478C12.6963 5.52908 11.4112 4.98828 10 4.98828C7.92355 4.98828 6.12066 6.15883 5.20996 7.87698L6.86449 9.20513C7.35207 7.94476 8.57035 7.04954 10 7.04954Z" fill="#EA4335"/>
<path id="Vector_5" d="M6.6351 10.423C6.6351 9.99313 6.71838 9.58362 6.86467 9.20558L5.21014 7.87744C4.8076 8.63691 4.57861 9.503 4.57861 10.423C4.57861 11.3472 4.80951 12.2172 5.21553 12.9792L6.86025 11.6282C6.71697 11.2534 6.6351 10.8482 6.6351 10.423Z" fill="#FBBC05"/>
<path id="Vector_6" d="M11.8714 13.2236C11.3362 13.5835 10.6936 13.7953 10.0006 13.7953C8.56629 13.7953 7.34492 12.8943 6.86055 11.6274L5.21582 12.9784C6.1284 14.6908 7.92836 15.8565 10.0005 15.8565C11.3462 15.8565 12.5764 15.3639 13.5242 14.5504L11.8714 13.2236Z" fill="#34A853"/>
<path id="Vector_7" d="M15.4217 10.4216C15.4217 10.1072 15.3928 9.79985 15.3412 9.50024H10.2183V11.4209H13.215C12.9849 12.1655 12.5031 12.7978 11.871 13.2229L13.5238 14.5497C14.685 13.553 15.4217 12.074 15.4217 10.4216Z" fill="#4285F4"/>
</g>
</svg>
