<svg width="20" height="21" viewBox="0 0 20 21" fill="none" xmlns="http://www.w3.org/2000/svg">
<g id="Group 88">
<path id="Vector" d="M19.6576 3.98525C19.4756 2.276 18.1285 0.925795 16.4227 0.743524C12.1451 0.286013 7.85492 0.286013 3.57742 0.743524C1.87164 0.925948 0.524445 2.276 0.342407 3.98525C-0.114136 8.27182 -0.114136 12.5712 0.342407 16.8578C0.524445 18.5672 1.87164 19.9173 3.57727 20.0997C7.85477 20.5572 12.1451 20.5572 16.4227 20.0997C18.1285 19.9173 19.4756 18.5672 19.6576 16.8578C20.1141 12.5712 20.1141 8.27198 19.6576 3.98525V3.98525Z" fill="url(#paint0_radial_1_145)"/>
<path id="Vector_2" d="M18.5699 4.71011C18.4085 3.1934 17.2131 1.99535 15.6995 1.83342C11.9037 1.4276 8.09661 1.4276 4.30083 1.83342C2.78731 1.99535 1.59178 3.1934 1.43019 4.71011C1.02522 8.51388 1.02522 12.329 1.43019 16.1326C1.59178 17.6495 2.78731 18.8475 4.30083 19.0093C8.09661 19.4153 11.9037 19.4153 15.6993 19.0093C17.213 18.8475 18.4085 17.6495 18.5699 16.1326C18.9751 12.329 18.9751 8.51388 18.5699 4.71011V4.71011Z" fill="url(#paint1_linear_1_145)"/>
<path id="Vector_3" d="M0.299316 16.4409C0.313049 16.5795 0.32724 16.718 0.342041 16.8566C0.524078 18.5662 1.87128 19.9165 3.57706 20.0989C7.85455 20.5565 12.1449 20.5565 16.4224 20.0989C18.1281 19.9165 19.4752 18.5662 19.6572 16.8566C19.672 16.718 19.6862 16.5795 19.7001 16.4409H0.299316Z" fill="url(#paint2_linear_1_145)"/>
<path id="Vector_4" d="M19.6575 16.859C19.9028 14.5557 20.016 12.2487 19.9977 9.94208L15.4262 5.36089C14.8551 4.7075 14.0209 4.29969 13.0407 4.26437C11.0248 4.19158 9.00258 4.19525 6.98644 4.26467C5.31195 4.32247 4.14099 5.45034 3.8407 7.10804C3.78775 7.40071 3.75601 7.69721 3.71436 7.99202V12.8518C3.7374 13.0093 3.77127 13.166 3.7818 13.3245C3.84894 14.3328 4.26245 15.1964 4.92453 15.7807L9.57661 20.4424C11.8596 20.4585 14.1428 20.3447 16.4226 20.1008C18.1284 19.9184 19.4754 18.5684 19.6575 16.859V16.859Z" fill="url(#paint3_linear_1_145)"/>
<path id="Vector_5" d="M19.6575 16.8571C19.4756 18.5662 18.1281 19.9166 16.4226 20.0989C14.1431 20.3426 11.8595 20.4565 9.57673 20.4405L4.93164 15.7855C5.47012 16.2579 6.17203 16.5455 6.98655 16.5762C9.00224 16.6521 11.0249 16.6501 13.0406 16.5773C14.8638 16.5113 16.183 15.1591 16.24 13.3321C16.3007 11.3922 16.3007 9.44732 16.24 7.50748C16.214 6.66463 15.9188 5.923 15.4293 5.36182L19.9979 9.94016C20.0159 12.2465 19.9027 14.5538 19.6575 16.8571Z" fill="url(#paint4_linear_1_145)"/>
<path id="Vector_6" d="M12.3602 8.25187C11.7746 7.61285 10.9343 7.21191 10.0003 7.21191C8.2312 7.21191 6.79688 8.64928 6.79688 10.4221C6.79688 11.3581 7.19696 12.2002 7.83462 12.7871L15.2463 20.2145C15.6386 20.1802 16.0309 20.1421 16.4229 20.1002C18.1286 19.9178 19.4758 18.5678 19.6579 16.8584C19.6997 16.4655 19.7377 16.0724 19.7719 15.6793L12.3602 8.25187Z" fill="url(#paint5_linear_1_145)"/>
<path id="Vector_7" d="M19.9613 12.5806L13.9964 6.60335C13.8572 6.42032 13.6379 6.30151 13.3906 6.30151C12.9698 6.30151 12.6284 6.64341 12.6284 7.06528C12.6284 7.31314 12.747 7.53286 12.9296 7.67231L19.8546 14.6119C19.9016 13.935 19.9372 13.2578 19.9613 12.5806V12.5806Z" fill="url(#paint6_linear_1_145)"/>
<path id="Vector_8" d="M3.71436 7.99197C3.75601 7.69716 3.78775 7.40067 3.8407 7.108C4.14084 5.45032 5.31195 4.32247 6.98644 4.26467C9.00258 4.19525 11.0248 4.19158 13.0407 4.26437C14.8632 4.33012 16.1831 5.68244 16.24 7.50939C16.3005 9.44934 16.3005 11.394 16.24 13.334C16.1831 15.1609 14.8636 16.5131 13.0408 16.579C11.025 16.6519 9.00228 16.6538 6.9866 16.5779C5.16379 16.5093 3.90372 15.1539 3.7818 13.3242C3.77127 13.1659 3.7374 13.009 3.71436 12.8515C3.71436 11.2316 3.71436 9.61172 3.71436 7.99197V7.99197ZM10.0016 15.4962C10.9241 15.4962 11.8476 15.5239 12.7689 15.4898C14.2135 15.4362 15.102 14.5722 15.1357 13.126C15.1775 11.324 15.1775 9.51952 15.1357 7.71734C15.102 6.27144 14.2128 5.38732 12.7689 5.35659C10.9362 5.31775 9.10146 5.31806 7.26873 5.35659C5.83578 5.38671 4.94467 6.25294 4.90576 7.68294C4.85632 9.50775 4.85632 11.3358 4.90576 13.1606C4.94467 14.5904 5.83578 15.4366 7.26888 15.4898C8.17861 15.5238 9.09063 15.4962 10.0016 15.4962V15.4962Z" fill="url(#paint7_linear_1_145)"/>
<g id="Group">
<path id="Vector_9" d="M3.71436 7.99197C3.75601 7.69716 3.78775 7.40067 3.8407 7.108C4.14084 5.45032 5.31195 4.32247 6.98644 4.26467C9.00258 4.19525 11.0248 4.19158 13.0407 4.26437C14.8632 4.33012 16.1831 5.68244 16.24 7.50939C16.3005 9.44934 16.3005 11.394 16.24 13.334C16.1831 15.1609 14.8636 16.5131 13.0408 16.579C11.025 16.6519 9.00228 16.6538 6.9866 16.5779C5.16379 16.5093 3.90372 15.1539 3.7818 13.3242C3.77127 13.1659 3.7374 13.009 3.71436 12.8515C3.71436 11.2316 3.71436 9.61172 3.71436 7.99197V7.99197ZM10.0016 15.4962C10.9241 15.4962 11.8476 15.5239 12.7689 15.4898C14.2135 15.4362 15.102 14.5722 15.1357 13.126C15.1775 11.324 15.1775 9.51952 15.1357 7.71734C15.102 6.27144 14.2128 5.38732 12.7689 5.35659C10.9362 5.31775 9.10146 5.31806 7.26873 5.35659C5.83578 5.38671 4.94467 6.25294 4.90576 7.68294C4.85632 9.50775 4.85632 11.3358 4.90576 13.1606C4.94467 14.5904 5.83578 15.4366 7.26888 15.4898C8.17861 15.5238 9.09063 15.4962 10.0016 15.4962V15.4962Z" fill="white"/>
<path id="Vector_10" d="M10.0003 7.2124C8.2312 7.2124 6.79688 8.64961 6.79688 10.4225C6.79688 12.1955 8.2312 13.6327 10.0003 13.6327C11.7696 13.6327 13.2037 12.1955 13.2037 10.4225C13.2037 8.64961 11.7696 7.2124 10.0003 7.2124ZM10.0003 12.5274C8.84018 12.5274 7.89978 11.585 7.89978 10.4225C7.89978 9.25988 8.84018 8.31749 10.0003 8.31749C11.1604 8.31749 12.1008 9.25988 12.1008 10.4225C12.1008 11.585 11.1604 12.5274 10.0003 12.5274Z" fill="white"/>
<path id="Vector_11" d="M14.1526 7.06398C14.1526 7.48579 13.8114 7.82776 13.3906 7.82776C12.9698 7.82776 12.6284 7.48579 12.6284 7.06398C12.6284 6.64202 12.9698 6.30005 13.3906 6.30005C13.8114 6.30005 14.1526 6.64202 14.1526 7.06398Z" fill="white"/>
</g>
</g>
<defs>
<radialGradient id="paint0_radial_1_145" cx="0" cy="0" r="1" gradientUnits="userSpaceOnUse" gradientTransform="translate(4.09989 17.9159) scale(22.0565 22.1033)">
<stop stop-color="#FAE100"/>
<stop offset="0.0544" stop-color="#FADC04"/>
<stop offset="0.1167" stop-color="#FBCE0E"/>
<stop offset="0.1829" stop-color="#FCB720"/>
<stop offset="0.2514" stop-color="#FE9838"/>
<stop offset="0.3054" stop-color="#FF7950"/>
<stop offset="0.4922" stop-color="#FF1C74"/>
<stop offset="1" stop-color="#6C1CD1"/>
</radialGradient>
<linearGradient id="paint1_linear_1_145" x1="7.67095" y1="9.1085" x2="-26.2457" y2="-9.92948" gradientUnits="userSpaceOnUse">
<stop stop-color="#A1B5D8" stop-opacity="0"/>
<stop offset="0.3094" stop-color="#90A2BD" stop-opacity="0.309804"/>
<stop offset="0.7554" stop-color="#7C8B9C" stop-opacity="0.756863"/>
<stop offset="1" stop-color="#748290"/>
</linearGradient>
<linearGradient id="paint2_linear_1_145" x1="9.99965" y1="18.0916" x2="9.99965" y2="21.2163" gradientUnits="userSpaceOnUse">
<stop stop-color="#FAE100" stop-opacity="0"/>
<stop offset="0.3068" stop-color="#FCA800" stop-opacity="0.305882"/>
<stop offset="0.6275" stop-color="#FE7300" stop-opacity="0.627451"/>
<stop offset="0.8685" stop-color="#FF5200" stop-opacity="0.866667"/>
<stop offset="1" stop-color="#FF4500"/>
</linearGradient>
<linearGradient id="paint3_linear_1_145" x1="8.8621" y1="9.25428" x2="3.90197" y2="4.30462" gradientUnits="userSpaceOnUse">
<stop stop-color="#833AB4" stop-opacity="0"/>
<stop offset="1" stop-color="#833AB4"/>
</linearGradient>
<linearGradient id="paint4_linear_1_145" x1="13.7069" y1="18.7309" x2="11.2264" y2="7.06177" gradientUnits="userSpaceOnUse">
<stop stop-color="#833AB4" stop-opacity="0"/>
<stop offset="1" stop-color="#833AB4"/>
</linearGradient>
<linearGradient id="paint5_linear_1_145" x1="14.6474" y1="15.0791" x2="4.70351" y2="5.15631" gradientUnits="userSpaceOnUse">
<stop stop-color="#833AB4" stop-opacity="0"/>
<stop offset="1" stop-color="#833AB4"/>
</linearGradient>
<linearGradient id="paint6_linear_1_145" x1="15.3832" y1="9.06198" x2="12.095" y2="5.78072" gradientUnits="userSpaceOnUse">
<stop stop-color="#833AB4" stop-opacity="0"/>
<stop offset="1" stop-color="#833AB4"/>
</linearGradient>
<linearGradient id="paint7_linear_1_145" x1="13.9709" y1="6.47109" x2="5.86349" y2="14.5615" gradientUnits="userSpaceOnUse">
<stop stop-color="#833AB4"/>
<stop offset="0.0922" stop-color="#9C3495"/>
<stop offset="0.2927" stop-color="#DC2546"/>
<stop offset="0.392" stop-color="#FD1D1D"/>
<stop offset="0.5589" stop-color="#FC6831"/>
<stop offset="0.6887" stop-color="#FC9B40"/>
<stop offset="0.7521" stop-color="#FCAF45"/>
<stop offset="0.7806" stop-color="#FDB750"/>
<stop offset="0.8656" stop-color="#FECB6A"/>
<stop offset="0.9415" stop-color="#FFD87A"/>
<stop offset="1" stop-color="#FFDC80"/>
</linearGradient>
</defs>
</svg>
