<svg width="20" height="21" viewBox="0 0 20 21" fill="none" xmlns="http://www.w3.org/2000/svg">
<g id="Group 171">
<path id="Vector" d="M16.4227 20.1007C12.1452 20.5582 7.85477 20.5582 3.57727 20.1007C1.87164 19.9182 0.524445 18.5681 0.342407 16.8586C-0.114136 12.5718 -0.114136 8.27221 0.342407 3.98543C0.524445 2.2761 1.87164 0.925974 3.57727 0.743541C7.85477 0.286007 12.1451 0.286007 16.4226 0.743541C18.1284 0.925974 19.4756 2.2761 19.6576 3.98543C20.1141 8.27221 20.1141 12.5718 19.6576 16.8586C19.4756 18.5681 18.1285 19.9182 16.4227 20.1007Z" fill="url(#paint0_linear_1_161)"/>
<path id="Vector_2" d="M18.5699 4.71019C18.4085 3.19344 17.2131 1.99536 15.6995 1.83343C11.9037 1.42759 8.09661 1.42759 4.30083 1.83343C2.78731 1.99536 1.59178 3.19344 1.43019 4.71019C1.02522 8.51408 1.02522 12.3293 1.43019 16.133C1.59178 17.6499 2.78731 18.848 4.30083 19.0098C8.09661 19.4158 11.9037 19.4158 15.6993 19.0098C17.213 18.848 18.4085 17.6499 18.5699 16.133C18.9751 12.3293 18.9751 8.51408 18.5699 4.71019V4.71019Z" fill="url(#paint1_linear_1_161)"/>
<path id="Vector_3" d="M0.299805 16.4429C0.313538 16.5814 0.327728 16.72 0.342529 16.8586C0.524567 18.5682 1.87177 19.9186 3.57755 20.101C7.85504 20.5586 12.1454 20.5586 16.4229 20.101C18.1286 19.9186 19.4757 18.5682 19.6577 16.8586C19.6725 16.72 19.6867 16.5814 19.7006 16.4429H0.299805Z" fill="url(#paint2_linear_1_161)"/>
<path id="Vector_4" d="M19.9959 9.71792L15.8445 5.55762C15.3792 5.82415 14.9692 5.97203 14.6604 6.05399C14.4867 6.10063 14.345 6.12601 14.243 6.13993C13.7749 5.659 13.1212 5.36035 12.3976 5.36035C10.974 5.36035 9.81967 6.51703 9.81967 7.94406C9.81967 7.9956 9.82105 8.04652 9.8244 8.09729C9.83127 8.221 9.84699 8.34257 9.87125 8.46078C9.27692 8.45191 7.34516 8.29287 5.50281 6.71016C5.50266 6.71016 5.50266 6.71001 5.50266 6.71001H5.5025L4.63367 5.83914C4.63367 5.83914 3.61438 7.62202 5.11295 8.97489C5.17871 9.04844 5.25104 9.12108 5.33023 9.19249C5.33649 9.19953 5.34305 9.20641 5.3493 9.21344C5.15262 9.20014 4.56104 9.14111 4.21863 8.89873C4.21863 8.89873 4.14981 9.98843 5.05573 10.7906L5.78723 11.53C5.56445 11.5485 5.31802 11.5441 5.14667 11.4688C5.14667 11.4688 5.29834 12.1143 5.88458 12.6309L6.90936 13.6632C6.29459 14.0221 5.21838 14.4712 3.80176 14.3566L10.0183 20.4439C12.1543 20.4433 14.2902 20.3289 16.4229 20.1008C18.1287 19.9184 19.4759 18.5682 19.6579 16.8589C19.9111 14.481 20.0235 12.0992 19.9959 9.71792V9.71792Z" fill="url(#paint3_linear_1_161)"/>
<path id="Vector_5" d="M16.1985 6.56102C15.756 6.79299 15.0895 6.90018 14.8685 6.93107C14.8667 6.92036 14.8649 6.91012 14.863 6.89987C15.6142 6.43426 15.8442 5.55761 15.8442 5.55761C15.3789 5.82413 14.9689 5.972 14.6601 6.05396C14.4864 6.1006 14.3447 6.12583 14.2428 6.1399C13.7746 5.65884 13.1209 5.36035 12.3974 5.36035C10.9737 5.36035 9.81937 6.51683 9.81937 7.94396C9.81937 7.99534 9.82074 8.04641 9.8241 8.09703C9.83096 8.22073 9.84668 8.3423 9.87094 8.4605C9.18185 8.45025 6.6945 8.23847 4.63334 5.83912C4.63334 5.83912 3.48556 7.84594 5.4152 9.2168C5.4152 9.2168 4.63334 9.19234 4.21829 8.89859C4.21829 8.89859 4.09622 10.8323 6.31868 11.444C6.31868 11.444 5.53727 11.64 5.14619 11.4686C5.14619 11.4686 5.53712 13.1329 7.49102 13.2555C7.49102 13.2555 6.08964 14.5412 3.80127 14.3562C4.92676 15.0703 6.26115 15.4836 7.69182 15.4836C11.7145 15.4836 14.9756 12.2157 14.9756 8.18449C14.9756 8.13418 14.9752 8.08387 14.9741 8.03357C14.9752 8.00375 14.9756 7.97408 14.9756 7.94396C14.9756 7.92301 14.9752 7.90206 14.9749 7.88111C15.7186 7.38445 16.1985 6.56102 16.1985 6.56102V6.56102Z" fill="white"/>
</g>
<defs>
<linearGradient id="paint0_linear_1_161" x1="6.64039" y1="3.21846" x2="11.717" y2="14.0565" gradientUnits="userSpaceOnUse">
<stop stop-color="#00C3FF"/>
<stop offset="1" stop-color="#00B0ED"/>
</linearGradient>
<linearGradient id="paint1_linear_1_161" x1="14.2299" y1="12.6955" x2="-14.8551" y2="-2.87353" gradientUnits="userSpaceOnUse">
<stop stop-color="#00B0ED" stop-opacity="0"/>
<stop offset="1" stop-color="#00A2CE"/>
</linearGradient>
<linearGradient id="paint2_linear_1_161" x1="10.0001" y1="17.5227" x2="10.0001" y2="20.1495" gradientUnits="userSpaceOnUse">
<stop stop-color="#00B0ED" stop-opacity="0"/>
<stop offset="1" stop-color="#00A2CE"/>
</linearGradient>
<linearGradient id="paint3_linear_1_161" x1="19.1182" y1="19.2724" x2="9.32645" y2="9.50178" gradientUnits="userSpaceOnUse">
<stop stop-color="#00B0ED" stop-opacity="0"/>
<stop offset="1" stop-color="#00A2CE"/>
</linearGradient>
</defs>
</svg>
